<?xml version="1.0" encoding="iso-8859-1"?>
<!-- Generator: Adobe Illustrator 19.0.0, SVG Export Plug-In . SVG Version: 6.00 Build 0)  -->
<svg version="1.1" id="Layer_1" xmlns="http://www.w3.org/2000/svg" xmlns:xlink="http://www.w3.org/1999/xlink" x="0px" y="0px"
	 viewBox="0 0 270.03 270.03" style="enable-background:new 0 0 270.03 270.03;" xml:space="preserve">
<g id="XMLID_799_">
	<path id="XMLID_800_" d="M257.677,12.355c-6.143-6.142-24.832-12.339-52.742-12.339c-4.322,0-8.84,0.168-13.502,0.497
		l78.111,78.111C271.843,45.477,265.664,20.342,257.677,12.355z"/>
	<path id="XMLID_801_" d="M65.096,270.014h0.009c4.319,0,8.835-0.167,13.492-0.497L0.486,191.406
		c-2.299,33.147,3.879,58.283,11.865,66.27C18.492,263.816,37.183,270.013,65.096,270.014z"/>
	<path id="XMLID_802_" d="M211.573,211.571c31.108-31.107,45.552-68.344,52.265-96.228L154.769,6.274
		c-33.021,7.998-68.389,24.261-96.311,52.182c-31.108,31.108-45.553,68.347-52.266,96.231l109.07,109.07
		C148.283,255.759,183.65,239.495,211.573,211.571z M103.195,209.26l-42.428-42.427c-5.857-5.858-5.857-15.355,0-21.213
		c5.858-5.858,15.356-5.858,21.213,0l10.555,10.554l21.213-21.213l-10.553-10.553c-5.857-5.857-5.859-15.355-0.001-21.213
		c5.858-5.857,15.354-5.858,21.214,0l10.554,10.553l21.214-21.213L145.621,81.98c-5.856-5.858-5.856-15.355,0.001-21.213
		c5.857-5.858,15.355-5.858,21.213,0.001l21.151,21.152c0.003,0.002,0.005,0.004,0.007,0.007c0.004,0.003,0.006,0.005,0.008,0.008
		l21.26,21.261c5.857,5.858,5.855,15.355-0.002,21.213c-2.928,2.929-6.767,4.393-10.605,4.393c-3.839,0-7.678-1.464-10.607-4.394
		l-10.659-10.66l-21.212,21.211l10.66,10.66c5.857,5.857,5.857,15.355,0,21.213c-2.929,2.929-6.768,4.394-10.606,4.394
		c-3.839,0-7.677-1.464-10.606-4.393l-10.66-10.66l-21.215,21.214l10.66,10.66c5.859,5.858,5.859,15.355,0,21.213
		c-2.929,2.929-6.768,4.394-10.607,4.394C109.962,213.654,106.123,212.189,103.195,209.26z"/>
</g>
<g>
</g>
<g>
</g>
<g>
</g>
<g>
</g>
<g>
</g>
<g>
</g>
<g>
</g>
<g>
</g>
<g>
</g>
<g>
</g>
<g>
</g>
<g>
</g>
<g>
</g>
<g>
</g>
<g>
</g>
</svg>
