<?xml version="1.0" encoding="iso-8859-1"?>
<!-- Generator: Adobe Illustrator 19.0.0, SVG Export Plug-In . SVG Version: 6.00 Build 0)  -->
<svg version="1.1" id="Capa_1" xmlns="http://www.w3.org/2000/svg" xmlns:xlink="http://www.w3.org/1999/xlink" x="0px" y="0px"
	 viewBox="0 0 462.974 462.974" style="enable-background:new 0 0 462.974 462.974;" xml:space="preserve">
<g>
	<path d="M185.892,391.974c-4.143,0-7.5,3.357-7.5,7.5s3.357,7.5,7.5,7.5h96c4.143,0,7.5-3.357,7.5-7.5s-3.357-7.5-7.5-7.5H185.892z
		"/>
	<path d="M257.892,415.974h-48c-4.143,0-7.5,3.357-7.5,7.5s3.357,7.5,7.5,7.5h48c4.143,0,7.5-3.357,7.5-7.5
		S262.034,415.974,257.892,415.974z"/>
	<path d="M369.013,149.618c-9.646-33.672-27.721-64.446-52.27-88.995s-55.323-42.624-88.995-52.27
		c-32.501-9.311-67.855-10.871-102.242-4.515c-18.203,3.365-32.694,17.856-36.06,36.06c-6.356,34.387-4.796,69.741,4.515,102.242
		c9.646,33.672,27.72,64.446,52.269,88.996c22.384,22.383,49.951,39.36,80.162,49.496v38.841c0,22.332-18.168,40.5-40.5,40.5h-24
		c-8.547,0-15.5,6.953-15.5,15.5v72c0,8.547,6.953,15.5,15.5,15.5h144c8.547,0,15.5-6.953,15.5-15.5v-72
		c0-8.547-6.953-15.5-15.5-15.5h-24c-22.332,0-40.5-18.168-40.5-40.5v-34.412c17.538,4.451,35.819,6.696,54.266,6.696
		c13.927,0,27.948-1.276,41.811-3.839c18.203-3.365,32.694-17.856,36.06-36.06C379.884,217.473,378.324,182.119,369.013,149.618z
		 M104.197,42.625c2.243-12.134,11.902-21.793,24.036-24.036c18.551-3.429,37.387-4.379,55.827-2.912l-82.775,82.775
		C99.817,80.011,100.767,61.175,104.197,42.625z M108.381,138.009c-1.943-6.783-3.503-13.707-4.719-20.721l99.234-99.234
		c7.014,1.216,13.938,2.776,20.721,4.719c31.677,9.074,59.44,25.378,82.519,48.457c23.079,23.078,39.383,50.842,48.457,82.519
		c1.943,6.783,3.503,13.707,4.719,20.721l-99.235,99.234c-7.014-1.216-13.938-2.776-20.72-4.719
		c-31.678-9.074-59.441-25.377-82.52-48.456C133.758,197.451,117.455,169.687,108.381,138.009z M306.392,375.474v72
		c0,0.275-0.225,0.5-0.5,0.5h-144c-0.275,0-0.5-0.225-0.5-0.5v-72c0-0.275,0.225-0.5,0.5-0.5h144
		C306.167,374.974,306.392,375.199,306.392,375.474z M244.002,359.974h-20.22c3.957-3.704,7.369-7.978,10.11-12.692
		C236.633,351.996,240.045,356.27,244.002,359.974z M358.778,249.133c-2.243,12.134-11.902,21.793-24.036,24.036
		c-18.55,3.43-37.387,4.38-55.828,2.913l82.776-82.775C363.157,211.747,362.207,230.583,358.778,249.133z"/>
	<path d="M256.415,181.415l-8.022,8.022c-2.929,2.929-2.929,7.678,0.001,10.606c1.464,1.464,3.384,2.196,5.303,2.196
		s3.839-0.732,5.304-2.197l8.021-8.021l16.906,16.906c1.465,1.464,3.384,2.196,5.304,2.196c1.919,0,3.839-0.732,5.304-2.196
		c2.929-2.93,2.929-7.678,0-10.607l-16.906-16.906l8.022-8.023c2.929-2.929,2.929-7.678-0.001-10.606
		c-2.928-2.928-7.677-2.929-10.606,0.001l-8.021,8.022l-13.083-13.083l8.021-8.021c2.93-2.929,2.93-7.678,0.001-10.606
		s-7.678-2.93-10.606-0.001l-8.022,8.022l-13.083-13.083l8.022-8.022c2.929-2.93,2.929-7.678,0-10.607
		c-2.93-2.928-7.678-2.928-10.607,0l-8.022,8.022l-13.083-13.083l8.022-8.022c2.929-2.929,2.929-7.678-0.001-10.606
		c-2.928-2.928-7.677-2.929-10.606,0.001l-8.021,8.021l-16.906-16.906c-2.929-2.928-7.677-2.928-10.607,0
		c-2.929,2.93-2.929,7.678,0,10.607l16.906,16.906l-8.022,8.023c-2.929,2.929-2.929,7.678,0.001,10.606
		c1.464,1.464,3.384,2.196,5.303,2.196s3.839-0.732,5.304-2.197l8.021-8.022l13.083,13.083l-8.022,8.022
		c-2.929,2.93-2.929,7.678,0,10.607c1.465,1.464,3.385,2.196,5.304,2.196s3.839-0.732,5.304-2.196l8.022-8.022l13.083,13.083
		l-8.021,8.021c-2.93,2.929-2.93,7.678-0.001,10.606c1.465,1.465,3.384,2.197,5.304,2.197c1.919,0,3.839-0.732,5.303-2.196
		l8.022-8.022L256.415,181.415z"/>
	<path d="M208.156,51.788c5.152,1.249,10.288,2.761,15.265,4.492c0.816,0.284,1.647,0.419,2.465,0.419
		c3.104,0,6.006-1.941,7.083-5.037c1.361-3.912-0.706-8.188-4.618-9.548c-5.433-1.891-11.037-3.54-16.659-4.904
		c-4.026-0.974-8.079,1.496-9.057,5.521C201.659,46.756,204.13,50.811,208.156,51.788z"/>
	<path d="M253.994,70.672c10.714,6.514,20.645,14.314,29.515,23.185c19.054,19.053,32.571,41.844,40.179,67.74
		c0.961,3.269,3.95,5.388,7.193,5.388c0.699,0,1.411-0.099,2.117-0.306c3.974-1.168,6.249-5.336,5.082-9.311
		c-8.323-28.333-23.115-53.27-43.965-74.119c-9.717-9.716-20.594-18.26-32.328-25.394c-3.54-2.151-8.153-1.029-10.305,2.512
		C249.33,63.908,250.455,68.521,253.994,70.672z"/>
</g>
<g>
</g>
<g>
</g>
<g>
</g>
<g>
</g>
<g>
</g>
<g>
</g>
<g>
</g>
<g>
</g>
<g>
</g>
<g>
</g>
<g>
</g>
<g>
</g>
<g>
</g>
<g>
</g>
<g>
</g>
</svg>
