<?xml version="1.0" encoding="iso-8859-1"?>
<!-- Generator: Adobe Illustrator 19.0.0, SVG Export Plug-In . SVG Version: 6.00 Build 0)  -->
<svg version="1.1" id="Layer_1"
	xmlns="http://www.w3.org/2000/svg"
	xmlns:xlink="http://www.w3.org/1999/xlink" x="0px" y="0px" viewBox="0 0 512 512" style="enable-background:new 0 0 512 512;fill:white" xml:space="preserve">
	<g>
		<g>
			<path d="M256,0C114.842,0,0,114.842,0,256s114.842,256,256,256s256-114.842,256-256S397.158,0,256,0z M256,474.537
			c-120.501,0-218.537-98.036-218.537-218.537S135.499,37.463,256,37.463S474.537,135.499,474.537,256S376.501,474.537,256,474.537z
			"/>
		</g>
	</g>
	<g>
		<g>
			<path d="M178.804,94.608c-26.844,34.335-61.416,63.107-99.979,83.207l17.314,33.223c43.274-22.554,82.064-54.835,112.179-93.354
			L178.804,94.608z"/>
		</g>
	</g>
	<g>
		<g>
			<path d="M333.197,94.608l-29.515,23.076c30.114,38.519,68.905,70.798,112.178,93.354l17.314-33.223
			C394.613,157.715,360.04,128.943,333.197,94.608z"/>
		</g>
	</g>
	<g>
		<g>
			<path d="M205.896,199.756c-12.872-11.263-25.539-20.781-26.072-21.181l-22.481,29.969c16.39,12.302,32.892,26.834,40.012,34.967
			c-7.121,8.133-23.621,22.665-40.01,34.966l22.478,29.971c0.533-0.4,13.2-9.918,26.072-21.181
			c26.125-22.86,31.372-33.69,31.372-43.756C237.268,233.446,232.021,222.616,205.896,199.756z"/>
		</g>
	</g>
	<g>
		<g>
			<path d="M314.644,243.512c7.121-8.133,23.621-22.665,40.01-34.966l-22.478-29.971c-0.533,0.4-13.2,9.918-26.072,21.181
			c-26.125,22.86-31.372,33.69-31.372,43.756c0,10.066,5.247,20.896,31.372,43.756c12.872,11.263,25.539,20.781,26.072,21.181
			l22.481-29.969C338.266,266.178,321.765,251.646,314.644,243.512z"/>
		</g>
	</g>
	<g>
		<g>
			<path d="M335.266,362.642c-7.553,9.062-10.523,11.992-16.831,11.992c-6.308,0-9.278-2.93-16.831-11.992
			c-8.453-10.144-21.228-25.471-45.612-25.471c-24.382,0-37.155,15.329-45.607,25.471c-7.551,9.062-10.522,11.992-16.827,11.992
			c-6.304,0-9.276-2.93-16.827-11.992c-8.453-10.144-21.227-25.471-45.609-25.471v37.463c6.305,0,9.277,2.93,16.829,11.992
			c8.452,10.144,21.226,25.471,45.608,25.471s37.155-15.329,45.607-25.471c7.551-9.062,10.522-11.992,16.827-11.992
			c6.308,0,9.28,2.928,16.832,11.992c8.453,10.144,21.228,25.471,45.61,25.471c24.383,0,37.158-15.328,45.612-25.471
			c7.551-9.062,10.523-11.992,16.831-11.992v-37.463C356.494,337.171,343.719,352.498,335.266,362.642z"/>
		</g>
	</g>
	<g>
	</g>
	<g>
	</g>
	<g>
	</g>
	<g>
	</g>
	<g>
	</g>
	<g>
	</g>
	<g>
	</g>
	<g>
	</g>
	<g>
	</g>
	<g>
	</g>
	<g>
	</g>
	<g>
	</g>
	<g>
	</g>
	<g>
	</g>
	<g>
	</g>
</svg>
